<?xml version="1.0" encoding="UTF-8"?>
<svg xmlns="http://www.w3.org/2000/svg" viewBox="0 0 1920 1080">
  <defs>
    <style>
      .cls-1 {
        fill: #e07ec2;
      }

      .cls-2 {
        fill: #8ed6d6;
      }

      .cls-3 {
        fill: #8c8c8c;
      }

      .cls-4 {
        fill: #3e3e3e;
      }

      .cls-5 {
        fill: #4d4d4d;
      }

      .cls-6 {
        fill: #ddedeb;
        opacity: .45;
      }

      .cls-7 {
        fill: #e07e1b;
      }

      .cls-8 {
        fill: #662d91;
      }

      .cls-9, .cls-10 {
        fill: #333;
      }

      .cls-11 {
        fill: #f7efe7;
      }

      .cls-12 {
        fill: gray;
      }

      .cls-13 {
        font-size: 279px;
      }

      .cls-13, .cls-10 {
        font-family: Poppins-ExtraBold, Poppins;
        font-weight: 700;
        isolation: isolate;
      }

      .cls-13, .cls-14 {
        fill: #fbb03b;
      }

      .cls-15 {
        fill: #efcee5;
      }

      .cls-16 {
        fill: #fce0bb;
      }

      .cls-17 {
        fill: #a0249d;
      }

      .cls-10 {
        font-size: 233px;
      }

      .cls-18 {
        fill: #f9de6b;
        stroke: #333;
        stroke-miterlimit: 10;
        stroke-width: 11px;
      }

      .cls-19 {
        fill: #999;
      }

      .cls-20 {
        fill: #b069b2;
      }

      .cls-21 {
        fill: #d2f7f7;
      }

      .cls-22 {
        fill: #777776;
      }

      .cls-23 {
        fill: #666;
      }
    </style>
  </defs>
  <g id="Layer_10" data-name="Layer 10">
    <g>
      <g>
        <rect class="cls-23" x="1116.34" y="954.52" width="46.66" height="64.1"/>
        <g>
          <rect class="cls-9" x="1102.65" y="1001.37" width="73.01" height="8.87" rx="2.8" ry="2.8"/>
          <rect class="cls-9" x="1102.65" y="982.14" width="73.01" height="11.45" rx="2.8" ry="2.8"/>
          <path class="cls-9" d="m1127.88,1037h22.96c.88,0,1.7-.41,2.23-1.11l10.39-13.75c1.39-1.84.08-4.49-2.23-4.49h-44.11c-2.33,0-3.64,2.69-2.2,4.52l10.75,13.75c.53.68,1.34,1.07,2.2,1.07Z"/>
          <rect class="cls-9" x="1102.65" y="962.81" width="73.01" height="11.91" rx="2.8" ry="2.8"/>
        </g>
        <path class="cls-9" d="m1162.65,954.67h-44.72c-44.25,0-44.48-52.31-44.48-69.96l-17.86-175.3v-.28c0-39.28,27.97-71.24,62.35-71.24h44.72c34.38,0,62.35,31.96,62.35,71.24l-.03.6-19.02,175.01c-.03,36.37-5.35,69.94-43.29,69.94Zm-96.05-245.82l17.86,175.3v.28c0,40.96,10.32,59.23,33.46,59.23h44.72c23.83,0,32.27-15.5,32.27-59.23l.03-.6,19.02-175c-.13-33.07-23.11-59.93-51.33-59.93h-44.72c-28.22,0-51.2,26.87-51.33,59.95Z"/>
        <g>
          <path class="cls-1" d="m1194.59,884.42l19.02-175c-.13-33.07-23.11-59.93-51.33-59.93h-44.72c-28.22,0-51.2,26.87-51.33,59.95l17.86,175.3v.28c0,40.96,10.32,59.23,33.46,59.23h44.72c23.83,0,32.27-15.5,32.27-59.23l.03-.6Z"/>
          <path class="cls-9" d="m1205.58,885.31l19.02-175.01.03-.6c0-39.28-27.97-71.24-62.35-71.24h-44.72c-34.38,0-62.35,31.96-62.35,71.24v.28l17.86,175.3c0,17.65.24,69.96,44.48,69.96h44.72c37.94,0,43.26-33.58,43.29-69.94Zm-43.29,58.93h-44.72c-23.14,0-33.46-18.27-33.46-59.23v-.28l-17.86-175.3c.13-33.08,23.1-59.95,51.33-59.95h44.72c28.22,0,51.19,26.86,51.33,59.93l-19.02,175-.03.6c0,43.73-8.44,59.23-32.27,59.23Z"/>
        </g>
      </g>
      <path class="cls-15" d="m1168.4,757.55l-6.33-.34c-6.96-.37-10.15-7.99-9.66-17.07l-.2-35.87c.48-9.08,6.57-16.2,13.53-15.83l6.33.34c6.96.37,12.26,8.1,11.77,17.18l-3.03,37.08c-.51,9.63-5.45,14.88-12.41,14.51Z"/>
    </g>
  </g>
  <g id="Layer_11" data-name="Layer 11">
    <rect class="cls-19" x="899" y="625.98" width="74" height="93.23"/>
    <path id="blub" class="cls-4" d="m959.52,740.14h-50.08c-1.61,0-3.1-.8-3.99-2.14l-11.63-17.44c-2.13-3.19.16-7.46,3.99-7.46h73.33c3.83,0,6.12,4.27,3.99,7.46l-11.63,17.44c-.89,1.34-2.39,2.14-3.99,2.14Zm15.8-49.58h-81.67c-2.65,0-4.8,2.15-4.8,4.8v3.92c0,2.65,2.15,4.8,4.8,4.8h81.67c2.65,0,4.8-2.15,4.8-4.8v-3.92c0-2.65-2.15-4.8-4.8-4.8Zm0-22.54h-81.67c-2.65,0-4.8,2.15-4.8,4.8v3.92c0,2.65,2.15,4.8,4.8,4.8h81.67c2.65,0,4.8-2.15,4.8-4.8v-3.92c0-2.65-2.15-4.8-4.8-4.8Zm2.94-22.54h-84.61c-2.65,0-4.8,2.15-4.8,4.8v3.92c0,2.65,2.15,4.8,4.8,4.8h81.67c2.65,0,4.8-2.15,4.8-4.8v-6.86c0-1.03-.83-1.86-1.86-1.86Zm9.57-9.64h-105.92v-105.64c-47.02-15.95-81.9-51.29-81.9-83.66,0-29.72,62.86-78.88,134.5-78.88s134.45,49.16,134.45,78.88c0,32.08-34.55,67.31-81.13,83.41v105.9Zm-92.4-13.52h78.88v-102.24l4.74-1.48c34.88-10.89,72.39-39.22,76.09-67.56h-241.31c3.69,28.6,41.58,56.99,76.82,67.77l4.78,1.46v102.04Zm-79.11-184.8h236.34c-11.67-21.64-58.84-56.34-118.15-56.34s-106.51,34.7-118.19,56.34Z"/>
    <path class="cls-14" d="m982.77,514.78v-.33c41.95-13.12,73.08-41.83,73.08-67.98,0-24.22-56.6-64.28-121.11-64.28s-121.15,40.07-121.15,64.28c0,26.39,31.42,55.19,73.77,68.18v.1c31.87,6.19,64.87,6.16,95.41.02Z"/>
    <g>
      <path class="cls-14" d="m813.82,451.06c3.69,28.6,41.58,56.99,76.82,67.77l4.78,1.46v102.04h78.88v-102.24l4.74-1.48c34.88-10.89,72.39-39.22,76.09-67.56h-241.31Z"/>
      <path class="cls-14" d="m934.5,381.2c-59.33,0-106.51,34.7-118.19,56.34h236.34c-11.67-21.64-58.84-56.34-118.15-56.34Z"/>
      <path class="cls-23" d="m980.12,678.71v-8.31c0-1.31-1.06-2.37-2.37-2.37h-7.41l-4.21,13.52h11.16c1.57,0,2.84-1.27,2.84-2.84Z"/>
      <path class="cls-23" d="m980.12,701.2v-7.86c0-1.53-1.24-2.78-2.78-2.78h-14.03l-4.21,13.52h18.13c1.6,0,2.89-1.29,2.89-2.89Z"/>
      <path class="cls-23" d="m963.34,738.27l14.47-21.71c.98-1.48-.07-3.45-1.85-3.45h-19.68l-8.42,27.04h11.96c1.41,0,2.73-.71,3.51-1.88Z"/>
      <path class="cls-23" d="m980.12,656.56v-9.52c0-.85-.69-1.55-1.55-1.55h-1.22l-4.21,13.52h4.52c1.36,0,2.46-1.1,2.46-2.46Z"/>
    </g>
    <ellipse class="cls-16" cx="997.43" cy="454.72" rx="34.93" ry="21.02"/>
  </g>
  <g id="Layer_5" data-name="Layer 5">
    <rect class="cls-22" x="385.2" y="807" width="35.43" height="41.97"/>
    <rect class="cls-22" x="389.99" y="809" width="25.85" height="56.19"/>
    <path id="blub-2" data-name="blub" class="cls-12" d="m434,832.24h-61.91c-1.78,0-3.23-1.44-3.23-3.23v-6.16c0-1.78,1.44-3.23,3.23-3.23h61.91c1.78,0,3.23,1.44,3.23,3.23v6.16c0,1.78-1.44,3.23-3.23,3.23Zm-7.11,10.45h-47.69c-1.78,0-3.23,1.44-3.23,3.23v6.16c0,1.78,1.44,3.23,3.23,3.23h47.69c1.78,0,3.23-1.44,3.23-3.23v-6.16c0-1.78-1.44-3.23-3.23-3.23Zm-8.06,18.78h-31.57c-1.78,0-3.23,1.44-3.23,3.23v6.16c0,1.78,1.44,3.23,3.23,3.23h31.57c1.78,0,3.23-1.44,3.23-3.23v-6.16c0-1.78-1.44-3.23-3.23-3.23Zm-10.2,12.62h-11.17c-1.78,0-3.23,1.44-3.23,3.23v1.47c0,1.78,1.44,3.23,3.23,3.23h11.17c1.78,0,3.23-1.44,3.23-3.23v-1.47c0-1.78-1.44-3.23-3.23-3.23Zm-50.74-64.98v-45.54c-13.88-11.09-77.88-64.93-77.88-113.99,0-68.26,54.96-123.79,122.5-123.79,67.55,0,122.5,55.53,122.5,123.79,0,48.96-63.79,102.8-77.61,113.89v45.53s-89.51.11-89.51.11Zm44.62-270.46c-60.53,0-109.77,49.76-109.77,110.93,0,47.47,74.6,105.14,75.36,105.71l2.52,1.93v39.01s64.05-.08,64.05-.08v-39.02s2.51-1.93,2.51-1.93c.75-.58,75.1-58.25,75.1-105.63,0-61.17-49.24-110.93-109.77-110.93Z"/>
    <path id="blub-3" data-name="blub" class="cls-5" d="m434.25,832.24h-62.42c-1.64,0-2.97-1.33-2.97-2.97v-6.67c0-1.64,1.33-2.97,2.97-2.97h62.42c1.64,0,2.97,1.33,2.97,2.97v6.67c0,1.64-1.33,2.97-2.97,2.97Zm-7.11,10.45h-48.2c-1.64,0-2.97,1.33-2.97,2.97v6.67c0,1.64,1.33,2.97,2.97,2.97h48.2c1.64,0,2.97-1.33,2.97-2.97v-6.67c0-1.64-1.33-2.97-2.97-2.97Zm-8.06,18.78h-32.08c-1.64,0-2.97,1.33-2.97,2.97v6.67c0,1.64,1.33,2.97,2.97,2.97h32.08c1.64,0,2.97-1.33,2.97-2.97v-6.67c0-1.64-1.33-2.97-2.97-2.97Zm-10.2,12.62h-11.68c-1.64,0-2.97,1.33-2.97,2.97v1.98c0,1.64,1.33,2.97,2.97,2.97h11.68c1.64,0,2.97-1.33,2.97-2.97v-1.98c0-1.64-1.33-2.97-2.97-2.97Zm-51-64.98v-45.54c-13.88-11.09-77.88-64.93-77.88-113.99,0-68.26,54.96-123.79,122.5-123.79,67.55,0,122.5,55.53,122.5,123.79,0,48.96-63.79,102.8-77.61,113.89v45.53s-89.51.11-89.51.11Zm44.62-270.46c-60.53,0-109.77,49.76-109.77,110.93,0,47.47,74.6,105.14,75.36,105.71l2.52,1.93v39.01s64.05-.08,64.05-.08v-39.02s2.51-1.93,2.51-1.93c.75-.58,75.1-58.25,75.1-105.63,0-61.17-49.24-110.93-109.77-110.93Z"/>
    <g>
      <path class="cls-17" d="m402.5,538.64c-60.53,0-109.77,49.76-109.77,110.93,0,47.47,74.6,105.14,75.36,105.71l2.52,1.93v39.01s64.05-.08,64.05-.08v-39.02s2.51-1.93,2.51-1.93c.75-.58,75.1-58.25,75.1-105.63,0-61.17-49.24-110.93-109.77-110.93Z"/>
      <rect class="cls-4" x="394.23" y="874.08" width="17.62" height="7.92" rx="2.55" ry="2.55"/>
      <path class="cls-4" d="m384.03,870c0,2.25,1.83,4.08,4.08,4.08h6.12s17.62,0,17.62,0h6.12c2.25,0,4.08-1.83,4.08-4.08v-4.45c0-2.25-1.83-4.08-4.08-4.08h-29.86c-2.25,0-4.08,1.83-4.08,4.08v4.45Z"/>
      <rect class="cls-4" x="375.97" y="842.68" width="54.14" height="12.62" rx="4.48" ry="4.48"/>
      <rect class="cls-4" x="368.86" y="819.62" width="68.36" height="12.62" rx="4.42" ry="4.42"/>
      <path class="cls-4" d="m402.5,525.78c-67.55,0-122.5,55.53-122.5,123.79,0,49.06,64,102.89,77.88,113.99v45.54s89.51-.11,89.51-.11v-45.53c13.83-11.09,77.61-64.93,77.61-113.89,0-68.26-54.95-123.79-122.5-123.79Zm34.67,229.42l-2.51,1.93v39.02s-64.05.08-64.05.08v-39.01s-2.52-1.93-2.52-1.93c-.75-.58-75.36-58.25-75.36-105.71,0-61.17,49.25-110.93,109.77-110.93,60.53,0,109.77,49.76,109.77,110.93,0,47.37-74.35,105.05-75.1,105.63Z"/>
    </g>
    <ellipse class="cls-20" cx="446" cy="600.77" rx="30.16" ry="30.48"/>
  </g>
  <g id="Layer_7" data-name="Layer 7">
    <g>
      <rect class="cls-3" x="731" y="839" width="54" height="124" rx="12" ry="12"/>
      <g>
        <g>
          <path class="cls-9" d="m724.66,952h66.69c1.47,0,2.66-1.83,2.66-4.1v-1.81c0-2.26-1.19-4.1-2.66-4.1h-66.69c-1.47,0-2.66,1.83-2.66,4.1v1.81c0,2.26,1.19,4.1,2.66,4.1Z"/>
          <path class="cls-9" d="m723.72,937.92h68.06c1.5,0,2.72-1.27,2.72-2.84v-3.24c0-1.57-1.22-2.84-2.72-2.84h-68.06c-1.5,0-2.72,1.27-2.72,2.84v3.24c0,1.57,1.22,2.84,2.72,2.84Z"/>
          <path class="cls-9" d="m744.2,971h26.98c.69,0,1.36-.25,1.85-.69l11.16-9.94c1.69-1.51.52-4.12-1.85-4.12h-49.69c-2.39,0-3.56,2.65-1.82,4.15l11.55,9.94c.49.42,1.14.66,1.82.66Z"/>
          <path class="cls-9" d="m724.14,924h67.22c1.73,0,3.14-1.51,3.14-3.36v-2.8c0-1.86-1.41-3.36-3.14-3.36h-67.22c-1.73,0-3.14,1.51-3.14,3.36v2.8c0,1.86,1.41,3.36,3.14,3.36Z"/>
          <path class="cls-23" d="m695.25,839.7c0,3.14.32,6.22.91,9.21.08.39.15.78.23,1.17,5.4,24.34,29.38,42.75,58.07,42.75h4.08c28.69,0,52.67-18.41,58.07-42.75.74-3.36,1.14-6.83,1.14-10.38v-4.27h-122.5v4.27Z"/>
          <path class="cls-2" d="m758.54,586.25h-4.08c-32.65,0-59.21,23.83-59.21,53.13v176.49s0,9.77,0,9.77v9.77s122.5,0,122.5,0v-9.63s0-.14,0-.14v-9.77s0-176.49,0-176.49c0-29.3-26.56-53.13-59.21-53.13Z"/>
          <path class="cls-9" d="m758.54,575.26h-4.08c-39.4,0-71.46,28.77-71.46,64.12v176.49s0,9.77,0,9.77v9.77s0,4.27,0,4.27c0,3.54.33,7,.95,10.38,2.28,12.51,8.6,23.82,17.72,32.79l9.19,11.18,11.55,14.06h69.09s11.12-14.06,11.12-14.06l9.45-11.94c8.72-8.85,14.76-19.87,16.98-32.03.62-3.38.95-6.85.95-10.38v-4.27s0-9.77,0-9.77v-9.77s0-176.49,0-176.49c0-35.36-32.06-64.12-71.46-64.12Zm59.21,250.39v.14s0,9.63,0,9.63v4.27c0,3.55-.4,7.02-1.14,10.38-5.4,24.34-29.38,42.75-58.07,42.75h-4.08c-28.69,0-52.67-18.41-58.07-42.75-.09-.39-.16-.78-.23-1.17-.59-2.99-.91-6.07-.91-9.21v-4.27s0-9.77,0-9.77v-9.77s0-176.49,0-176.49c0-29.3,26.56-53.13,59.21-53.13h4.08c32.65,0,59.21,23.83,59.21,53.13v176.49s0,9.77,0,9.77Z"/>
        </g>
        <path class="cls-21" d="m785.95,621.2h0c8.98.08,16.26,7.11,16.17,15.61l-.73,70.45c-.09,8.5-7.51,15.39-16.49,15.31h0c-8.98-.08-16.26-7.11-16.17-15.61l.73-70.45c.09-8.5,7.51-15.39,16.49-15.31Z"/>
      </g>
    </g>
  </g>
  <g id="Layer_2" data-name="Layer 2">
    <g>
      <rect class="cls-19" x="315" y="367" width="47" height="113" rx="12" ry="12"/>
      <path id="whole-blub" class="cls-4" d="m384.99,428.99l-94.46,1.63c-1.82.03-3.34-1.43-3.37-3.26l-.43-24.67c-.03-1.82,1.43-3.34,3.26-3.37l94.46-1.63c1.82-.03,3.34,1.43,3.37,3.26l.43,24.67c.03,1.82-1.43,3.34-3.26,3.37Zm-75.95,42.81s7.51,15.52,16.35,15.37l26.71-.46c8.84-.15,15.81-15.92,15.81-15.92m6.23-11.62l-.3-17.23c-.02-1.27-1.08-2.3-2.35-2.27l-67.1,1.16c-1.27.02-2.3,1.08-2.27,2.35l.3,17.23c.02,1.27,1.08,2.3,2.35,2.27l67.1-1.16c1.27-.02,2.3-1.08,2.27-2.35Zm-37.08-69.71c-56.99.98-91.79-44.06-93.11-120.5-1.34-77.45,49.55-185.06,87.82-185.72,38.27-.66,92.85,105.13,94.19,182.58,1.32,76.44-31.91,122.66-88.9,123.64Zm-5.05-292.05c-22.79.39-74.91,90.23-73.51,171.3,1.18,68.57,29.73,107.42,78.31,106.58,48.58-.84,75.76-40.65,74.58-109.22-1.4-81.07-56.6-169.05-79.38-168.66Z"/>
      <path id="base" class="cls-4" d="m384.99,428.99l-94.46,1.63c-1.82.03-3.34-1.43-3.37-3.26l-.43-24.67c-.03-1.82,1.43-3.34,3.26-3.37l94.46-1.63c1.82-.03,3.34,1.43,3.37,3.26l.43,24.67c.03,1.82-1.43,3.34-3.26,3.37Zm-75.95,42.81s7.51,15.52,16.35,15.37l26.71-.46c8.84-.15,15.81-15.92,15.81-15.92m6.23-11.62l-.3-17.23c-.02-1.27-1.08-2.3-2.35-2.27l-67.1,1.16c-1.27.02-2.3,1.08-2.27,2.35l.3,17.23c.02,1.27,1.08,2.3,2.35,2.27l67.1-1.16c1.27-.02,2.3-1.08,2.27-2.35Z"/>
      <g id="blub-fill">
        <path class="cls-7" d="m331.8,97.29c-22.79.39-74.91,90.23-73.51,171.3,1.18,68.57,29.73,107.42,78.31,106.58,48.58-.84,75.76-40.65,74.58-109.22-1.4-81.07-56.6-169.05-79.38-168.66Z"/>
      </g>
      <path id="blub-stroke" class="cls-4" d="m337.07,389.45c-56.99.98-91.79-44.06-93.11-120.5-1.34-77.45,49.55-185.06,87.82-185.72,38.27-.66,92.85,105.13,94.19,182.58,1.32,76.44-31.91,122.66-88.9,123.64Zm-5.05-292.05c-22.79.39-74.91,90.23-73.51,171.3,1.18,68.57,29.73,107.42,78.31,106.58,48.58-.84,75.76-40.65,74.58-109.22-1.4-81.07-56.6-169.05-79.38-168.66Z"/>
      <path class="cls-14" d="m369.77,156.32c6.69,18.25,12.03,42.77-11.47,42.36-8.27-.14-16.21-12.59-20.68-31.48-4.94-20.85-6.01-37.27,4.89-41.05,9.45-3.28,20.62,12.04,27.26,30.17Z"/>
      <path class="cls-23" d="m352.11,486.7c8.84-.15,15.81-15.92,15.81-15.92l-22.08.38c-2.64,5.71-5.5,10.97-8.48,15.8l14.75-.25Z"/>
      <path class="cls-23" d="m349.74,461.89l22.51-.39c1.07-.02,1.93-.88,1.91-1.92l-.31-18.08c-.02-1.04-.91-1.87-1.97-1.85l-15.63.27c-1.26,5.91-2.95,12.08-5.2,18.44-.42,1.2-.86,2.37-1.3,3.54Z"/>
      <path class="cls-23" d="m384.99,397.69l-25.88.45c.61,8.36.67,19.08-1.02,31.32l27.45-.47c1.53-.03,2.76-1.26,2.73-2.75l-.45-25.88c-.03-1.49-1.3-2.68-2.83-2.66Z"/>
    </g>
    <g>
      <g>
        <path class="cls-22" d="m588,603c0,2.09.55,4.06,1.5,5.78.09,0,.18-.03.27-.02l29.57.29c1.05-1.78,1.66-3.84,1.66-6.04v-.85l-33-.32v1.17Z"/>
        <polygon class="cls-22" points="588 571.7 621 572.02 621 563.07 588 562.79 588 571.7"/>
        <polygon class="cls-22" points="588 591.18 621 591.5 621 582.68 588 582.35 588 591.18"/>
        <path class="cls-8" d="m600,536h9c6.6,0,12,5.4,12,12v.39h10.87s.11-10.89.11-10.89v-21.18l2.09-1.59c.16-.12,4.43-3.4,10.65-8.85,3.45-3.02,7.5-6.71,11.79-10.92,7.03-6.88,14.7-15.11,21.42-23.99,15.38-18.04,24.06-41.65,26.56-65.52.51-4.86.76-9.74.76-14.58,0-53.93-31.33-112.09-100.11-112.35-68.79.27-100.12,58.44-100.11,112.38,0,5.11.28,10.26.85,15.4,2.74,24.74,12.14,49.13,28.77,67.26,6.39,8.09,13.46,15.57,19.95,21.88,4.23,4.11,8.22,7.72,11.61,10.68,6.13,5.35,10.32,8.55,10.48,8.67l2.1,1.59v32.05h9.21v-.44c0-6.6,5.4-12,12-12Z"/>
        <path class="cls-8" d="m621,548c0-6.6-5.4-12-12-12h-9c-6.6,0-12,5.4-12,12v.43l33-.04v-.39Z"/>
        <path class="cls-4" d="m630.48,582.77c1.79.02,3.25-1.42,3.27-3.21l.04-4.17c.02-1.79-1.42-3.25-3.21-3.27l-9.59-.09v10.65l9.48.09Z"/>
        <path class="cls-4" d="m578.73,571.61c-1.79-.02-3.25,1.42-3.27,3.21l-.04,4.17c-.02,1.79,1.42,3.25,3.21,3.27l9.37.09v-10.65l-9.27-.09Z"/>
        <polygon class="cls-4" points="588 582.35 621 582.68 621 572.02 588 571.7 588 582.35"/>
        <path class="cls-4" d="m586.24,591.16c-1.64-.02-2.98,1.3-3,2.94l-.05,4.72c-.02,1.64,1.3,2.98,2.94,3l1.86.02v-10.65l-1.76-.02Z"/>
        <path class="cls-4" d="m623.47,602.18c1.64.02,2.98-1.3,3-2.94l.05-4.72c.02-1.64-1.3-2.98-2.94-3l-2.57-.03v10.65l2.47.02Z"/>
        <polygon class="cls-4" points="588 601.83 621 602.15 621 591.5 588 591.18 588 601.83"/>
        <path class="cls-4" d="m609,615h-9c-4.51,0-8.45-2.52-10.5-6.22-1.54.12-2.76,1.39-2.78,2.96l-.03,3.57c-.02,1.67,1.32,3.03,2.99,3.05l3.76.04c1.67.02,3,1.38,2.99,3.05-.02,1.67,1.32,3.03,2.99,3.05l10.88.11c1.67.02,3.03-1.32,3.05-2.99.02-1.67,1.38-3,3.05-2.99l3.76.04c1.67.02,3.03-1.32,3.05-2.99l.03-3.57c.02-1.67-1.32-3.03-2.99-3.05h-.89c-2.09,3.54-5.94,5.95-10.34,5.95Z"/>
        <path class="cls-4" d="m589.5,608.78c2.05,3.7,5.99,6.22,10.5,6.22h9c4.4,0,8.25-2.4,10.34-5.96l-29.57-.29c-.09,0-.18.02-.27.02Z"/>
        <polygon class="cls-4" points="621 563.07 642.59 563.26 642.72 550 621 550 621 563.07"/>
        <polygon class="cls-4" points="566.33 550 566.21 562.6 588 562.79 588 550 566.33 550"/>
        <polygon class="cls-4" points="588 550 588 562.79 621 563.07 621 550 588 550"/>
        <path class="cls-4" d="m704.05,454.38c9.27-18.67,14.34-40.33,14.56-63.09.32-32.58-9.35-63.12-27.2-85.99-20.31-26.01-49.47-40-84.34-40.47h-.04c-34.88-.21-64.31,13.22-85.12,38.83-18.3,22.52-28.55,52.87-28.87,85.46-.25,25.75,5.74,50.21,17.07,70.63,15.85,30.36,47.77,57.38,56.47,64.4l-.25,25.85h21.67v-1.57h-9.21s0-32.04,0-32.04l-2.1-1.59c-.16-.12-4.35-3.33-10.48-8.67-3.39-2.96-7.38-6.57-11.61-10.68-6.49-6.31-13.56-13.79-19.95-21.88-16.63-18.13-26.03-42.52-28.77-67.26-.57-5.14-.85-10.29-.85-15.4,0-53.94,31.32-112.11,100.11-112.38,68.78.26,100.11,58.42,100.11,112.35,0,4.84-.26,9.71-.76,14.58-2.5,23.87-11.17,47.47-26.56,65.52-6.72,8.88-14.39,17.11-21.42,23.99-4.29,4.2-8.34,7.89-11.79,10.92-6.23,5.46-10.49,8.73-10.65,8.85l-2.09,1.59v21.18l-.11,10.88h-10.87v1.62h21.72l.25-25.19c9.5-7.39,46.41-37.53,61.09-70.43Z"/>
        <polygon class="cls-4" points="621 548.39 588 548.43 588 550 621 550 621 548.39"/>
      </g>
      <ellipse class="cls-6" cx="649.23" cy="363.1" rx="29.75" ry="35.75"/>
      <text class="cls-10" transform="translate(519 232.1)"><tspan x="0" y="0">FIND YOUR</tspan></text>
    </g>
    <text class="cls-13" transform="translate(1152.1 479.09)"><tspan x="0" y="0">IDEA</tspan></text>
    <g>
      <polygon class="cls-23" points="1359.4 886.15 1359.4 892.82 1375.08 892.82 1382.56 892.82 1382.56 886.15 1378.12 886.15 1359.4 886.15"/>
      <polygon class="cls-23" points="1353.36 867.34 1353.36 875.86 1359.4 875.86 1359.4 870.16 1382.56 870.16 1382.56 875.86 1382.82 875.86 1388.61 875.86 1388.61 867.34 1386.71 867.34 1353.36 867.34"/>
      <polygon class="cls-23" points="1353.36 857.05 1388.61 857.05 1388.61 848.4 1353.36 848.45 1353.36 857.05"/>
      <rect class="cls-23" x="1359.4" y="870.16" width="23.16" height="5.7"/>
      <path class="cls-9" d="m1342.13,858.67v6.53c0,1.18.96,2.13,2.13,2.13h9.09v-10.29h-9.6c-.9,0-1.62.73-1.62,1.62Z"/>
      <polygon class="cls-5" points="1391.41 857.05 1388.61 857.05 1388.61 863.19 1391.41 857.05"/>
      <polygon class="cls-9" points="1353.36 867.34 1386.71 867.34 1388.61 863.19 1388.61 857.05 1353.36 857.05 1353.36 867.34"/>
      <path class="cls-9" d="m1353.36,878.22v-2.36h-1.29c-1.24,0-2.24,1-2.24,2.24v5.64c0,1.33,1.08,2.41,2.41,2.41h7.15v-7.93h-6.04Z"/>
      <polygon class="cls-9" points="1381.74 878.22 1359.4 878.22 1359.4 886.15 1378.12 886.15 1381.74 878.22"/>
      <rect class="cls-9" x="1353.36" y="875.86" width="6.04" height="2.36"/>
      <polygon class="cls-5" points="1382.82 875.86 1382.56 875.86 1382.56 876.42 1382.82 875.86"/>
      <polygon class="cls-9" points="1381.74 878.22 1382.56 876.42 1382.56 875.86 1359.4 875.86 1359.4 878.22 1381.74 878.22"/>
      <path class="cls-9" d="m1359.4,892.82h-4.81c-.68,0-1.23.55-1.23,1.23v6.79c0,.7.57,1.26,1.26,1.26h8.19v3.95c0,1.04.84,1.88,1.88,1.88h3.49l6.9-15.11h-15.67Z"/>
      <path class="cls-9" d="m1333.09,843.53v3.08c0,1.03.83,1.86,1.86,1.86l18.41-.02v-6.48h-18.71c-.86,0-1.56.7-1.56,1.56Z"/>
      <path class="cls-9" d="m1388.61,848.4l16.14-.02c1.16,0,2.11-.95,2.11-2.11v-2.5c0-1-.81-1.81-1.81-1.81h-16.44v6.44Z"/>
      <polygon class="cls-9" points="1353.36 841.97 1353.36 848.45 1388.61 848.4 1388.61 841.97 1353.36 841.97"/>
      <path class="cls-12" d="m1388.61,867.34h6.69c1.76,0,3.19-1.43,3.19-3.19v-4.18c0-1.62-1.31-2.93-2.93-2.93h-4.14l-2.8,6.14v4.15Z"/>
      <polygon class="cls-12" points="1386.71 867.34 1388.61 867.34 1388.61 863.19 1386.71 867.34"/>
      <path class="cls-12" d="m1382.56,878.22v7.93h7.71c.75,0,1.36-.61,1.36-1.36v-7.35c0-.88-.71-1.58-1.58-1.58h-1.44v2.36h-6.04Z"/>
      <polygon class="cls-12" points="1381.74 878.22 1378.12 886.15 1382.56 886.15 1382.56 878.22 1381.74 878.22"/>
      <polygon class="cls-12" points="1382.56 876.42 1382.56 878.22 1388.61 878.22 1388.61 875.86 1382.82 875.86 1382.56 876.42"/>
      <polygon class="cls-12" points="1382.56 878.22 1382.56 876.42 1381.74 878.22 1382.56 878.22"/>
      <path class="cls-12" d="m1368.18,907.93h9.69c.71,0,1.28-.57,1.28-1.28v-4.54h7.57c1.04,0,1.88-.84,1.88-1.88v-6.35c0-.57-.47-1.04-1.04-1.04h-12.49l-6.9,15.11Z"/>
      <path class="cls-18" d="m1395.55,567.7c-22.49-14.28-25.94-21.53-33.84-20.76-2.53.24-3.26,1.09-19.93,15.67-3.46,3.03-6.59,5.75-9.26,8.08-45.5,17.99-66.7,68.96-66.69,109.74,0,4.77.29,9.57.87,14.36,2.8,23.08,12.42,45.83,29.44,62.74,6.54,7.55,13.77,14.52,20.42,20.41,4.33,3.84,8.41,7.2,11.88,9.96,6.28,4.99,10.56,7.98,10.73,8.09l2.14,1.48v29.9l54.41-.06v-29.9l2.14-1.48c.17-.11,4.53-3.17,10.9-8.26,3.53-2.82,7.67-6.26,12.07-10.18,7.19-6.41,15.04-14.09,21.91-22.37,15.74-16.83,24.62-38.85,27.17-61.11.52-4.54.78-9.08.78-13.6,0-43.32-23.62-98.16-75.13-112.7Z"/>
      <circle class="cls-11" cx="1406" cy="631" r="25"/>
    </g>
  </g>
</svg>