<?xml version="1.0" encoding="utf-8"?>
<!-- Generator: Adobe Illustrator 27.1.1, SVG Export Plug-In . SVG Version: 6.00 Build 0)  -->
<svg version="1.1" xmlns="http://www.w3.org/2000/svg" xmlns:xlink="http://www.w3.org/1999/xlink" x="0px" y="0px"
	 viewBox="0 0 48 48" style="enable-background:new 0 0 48 48;" xml:space="preserve">
<style type="text/css">
	.st0{fill:#A5A5A5;}
	.st1{fill:#39345D;}
	.st2{fill:#777789;}
	.st3{fill:#D3AE56;}
	.st4{fill:#901E88;}
	.st5{font-family:'MyriadPro-Bold';}
	.st6{font-size:6.7163px;}
</style>
<g id="Layer_1">
	<g>
		<path class="st0" d="M36,16c0-0.9-0.1-1.8-0.3-2.7L12,16.7c0.1,2.1,0.7,4,1.6,5.8l22-3.1C35.8,18.3,36,17.2,36,16z"/>
		<path class="st1" d="M18,36.3c0,2.3,2.7,4.2,6,4.2s6-1.9,6-4.2c0,0,0-2.1,0-2.7v-0.9l-12,1.2C18,34.6,18,36.3,18,36.3z"/>
		<path class="st2" d="M34.5,22.3L15,25.1c1.3,2.3,2.6,4.3,2.9,6l12.8-1.8C31.6,27.2,33.2,25,34.5,22.3z"/>
		<path class="st3" d="M24,4c-5.9,0-10.8,4.2-11.8,9.8l22.5-3.2C32.7,6.7,28.7,4,24,4z"/>
	</g>
	<text transform="matrix(1 0 0 1 9.8488 46.5994)"><tspan x="0" y="0" class="st4 st5 st6">VI</tspan><tspan x="6.2" y="0" class="st1 st5 st6">DE</tspan><tspan x="14.4" y="0" class="st2 st5 st6">SIGN</tspan></text>
</g>
<g id="Layer_2">
</g>
</svg>
